<svg width="201" height="68" viewBox="0 0 201 68" fill="none" xmlns="http://www.w3.org/2000/svg">
<path d="M184.992 -0.000421944H16.0174C15.3995 -0.000421944 14.7897 -0.000421944 14.1799 -0.000421944C13.6677 -0.000421944 13.1555 0.015824 12.6351 0.023947C11.505 0.0401929 10.383 0.137669 9.26914 0.324497C8.15528 0.511326 7.08206 0.868737 6.07389 1.38048C5.07385 1.89223 4.15512 2.55832 3.35834 3.36249C2.55342 4.15854 1.88673 5.07644 1.38265 6.08369C0.87043 7.09094 0.520822 8.16317 0.333822 9.27602C0.146823 10.3889 0.049258 11.5098 0.0329972 12.6389C0.0167364 13.1507 0.0167364 13.6705 0.00860596 14.1823V52.9695C0.0167364 53.4894 0.0167364 53.993 0.0329972 54.5129C0.049258 55.642 0.146823 56.763 0.333822 57.8758C0.520822 58.9886 0.87043 60.069 1.38265 61.0681C1.89486 62.0754 2.56155 62.9851 3.35834 63.7812C4.15512 64.5854 5.07385 65.2515 6.07389 65.7632C7.08206 66.275 8.15528 66.6324 9.26914 66.8192C10.383 66.9979 11.505 67.1035 12.6351 67.1197C13.1555 67.1279 13.6677 67.136 14.1799 67.136C14.7978 67.136 15.3995 67.136 16.0174 67.136H184.992C185.593 67.136 186.211 67.136 186.813 67.136C187.325 67.136 187.854 67.136 188.358 67.1197C189.48 67.1035 190.61 67.006 191.716 66.8192C192.829 66.6243 193.911 66.2668 194.919 65.7632C195.927 65.2515 196.838 64.5854 197.634 63.7812C198.431 62.9851 199.106 62.0754 199.618 61.0681C200.122 60.0609 200.48 58.9805 200.659 57.8758C200.846 56.763 200.952 55.642 200.968 54.5129C200.968 53.993 200.968 53.4894 200.968 52.9695C200.984 52.3603 200.984 51.7511 200.984 51.1337V16.0018C200.984 15.3845 200.984 14.7753 200.968 14.1661C200.968 13.6543 200.968 13.1344 200.968 12.6227C200.952 11.4936 200.846 10.3726 200.659 9.25977C200.48 8.14692 200.122 7.07469 199.618 6.06744C198.578 4.04482 196.935 2.40398 194.919 1.37236C193.911 0.860614 192.829 0.511326 191.716 0.316374C190.602 0.129546 189.48 0.03207 188.358 0.015824C187.845 0.00770103 187.317 -0.000421944 186.813 -0.00854492C186.211 -0.00854492 185.593 -0.00854492 184.992 -0.00854492V-0.000421944Z" fill="#949494"/>
<path d="M14.1876 65.6581C13.6754 65.6581 13.1794 65.658 12.6672 65.6418C11.6184 65.6255 10.5695 65.5362 9.52886 65.3656C8.56134 65.195 7.62634 64.8864 6.74826 64.4477C5.8783 64.0091 5.08965 63.4324 4.39857 62.7419C3.69935 62.0596 3.12209 61.2716 2.68305 60.3944C2.23588 59.5171 1.92692 58.5829 1.77244 57.6163C1.60171 56.5766 1.50414 55.5206 1.49601 54.4727C1.48788 54.1153 1.47162 52.9375 1.47162 52.9375V14.1746C1.47162 14.1746 1.48788 13.013 1.49601 12.6719C1.51227 11.6159 1.60171 10.568 1.77244 9.52827C1.93505 8.55351 2.24401 7.61937 2.68305 6.74209C3.12209 5.87293 3.69935 5.085 4.39044 4.39455C5.08152 3.70409 5.8783 3.12736 6.74826 2.6806C7.62634 2.24196 8.56134 1.93329 9.52886 1.77083C10.5695 1.60024 11.6265 1.51089 12.6753 1.49464L14.1876 1.47028H186.804L188.341 1.49464C189.39 1.51089 190.43 1.60024 191.463 1.77083C192.439 1.93329 193.382 2.25008 194.268 2.68872C196.008 3.58225 197.431 5.00377 198.325 6.75021C198.764 7.61937 199.065 8.55351 199.228 9.52015C199.398 10.568 199.496 11.624 199.52 12.6881C199.52 13.1674 199.52 13.671 199.52 14.1827C199.537 14.8082 199.537 15.4093 199.537 16.0185V51.1423C199.537 51.7515 199.537 52.3445 199.52 52.9456C199.52 53.4898 199.52 53.9935 199.52 54.5052C199.504 55.5449 199.406 56.5847 199.236 57.6163C199.081 58.5911 198.772 59.5333 198.325 60.4187C197.886 61.2798 197.309 62.0596 196.618 62.7419C195.935 63.4324 195.138 64.0172 194.268 64.4558C193.382 64.9026 192.439 65.2113 191.463 65.3819C190.422 65.5524 189.374 65.6418 188.325 65.6581C187.829 65.6662 187.317 65.6743 186.821 65.6743H184.999H14.1876V65.6581Z" fill="black"/>
<path d="M41.6033 34.0678C41.644 31.2248 43.1319 28.5929 45.5629 27.0983C44.0262 24.9051 41.5383 23.5648 38.8553 23.4754C36.034 23.183 33.3022 25.165 31.8631 25.165C30.424 25.165 28.1882 23.5079 25.806 23.5567C22.6676 23.6541 19.822 25.3925 18.2935 28.138C15.0413 33.7591 17.4642 42.0121 20.5781 46.5609C22.131 48.7866 23.9522 51.2723 26.3344 51.1829C28.6679 51.0854 29.5378 49.6964 32.3428 49.6964C35.1478 49.6964 35.9446 51.1829 38.3756 51.126C40.8716 51.0854 42.4489 48.8922 43.953 46.6503C45.075 45.0663 45.9287 43.3117 46.506 41.4597C43.5384 40.2088 41.6033 37.3007 41.6033 34.0759V34.0678Z" fill="white"/>
<path d="M37.0178 20.4943C38.3837 18.8616 39.0504 16.7577 38.8878 14.6376C36.8064 14.857 34.8795 15.848 33.4973 17.4238C32.1314 18.9753 31.4403 21.006 31.5785 23.0612C33.6924 23.0855 35.6925 22.1351 37.0178 20.4943Z" fill="white"/>
<path d="M71.0517 45.5455H63.1001L61.1895 51.1747H57.8235L65.3522 30.3393H68.8483L76.3771 51.1747H72.9542L71.0435 45.5455H71.0517ZM63.9294 42.9462H70.2305L67.1247 33.8078H67.0352L63.9294 42.9462Z" fill="white"/>
<path d="M92.6542 43.5797C92.6542 48.2992 90.1256 51.3372 86.3043 51.3372C84.3286 51.4428 82.4749 50.4112 81.5155 48.681H81.4423V56.2029H78.3203V35.9848H81.3448V38.511H81.4017C82.3936 36.7889 84.2555 35.7573 86.2474 35.8223C90.1093 35.8223 92.6542 38.8684 92.6542 43.5797ZM89.4427 43.5797C89.4427 40.5011 87.8491 38.4785 85.4262 38.4785C83.0034 38.4785 81.4342 40.5417 81.4342 43.5797C81.4342 46.6177 83.0359 48.6891 85.4262 48.6891C87.8166 48.6891 89.4427 46.6827 89.4427 43.5797Z" fill="white"/>
<path d="M109.387 43.5797C109.387 48.2992 106.858 51.3372 103.037 51.3372C101.061 51.4428 99.2073 50.4112 98.2479 48.681H98.1747V56.2029H95.0527V35.9848H98.0772V38.511H98.1341C99.126 36.7889 100.988 35.7573 102.98 35.8223C106.842 35.8223 109.387 38.8684 109.387 43.5797ZM106.183 43.5797C106.183 40.5011 104.59 38.4785 102.167 38.4785C99.7439 38.4785 98.1747 40.5417 98.1747 43.5797C98.1747 46.6177 99.7764 48.6891 102.167 48.6891C104.557 48.6891 106.183 46.6827 106.183 43.5797Z" fill="white"/>
<path d="M120.452 45.375C120.68 47.4382 122.696 48.7947 125.436 48.7947C128.176 48.7947 129.956 47.4382 129.956 45.578C129.956 43.9616 128.818 42.9949 126.111 42.3289L123.411 41.679C119.582 40.753 117.802 38.9659 117.802 36.0579C117.802 32.4594 120.94 29.9901 125.395 29.9901C129.851 29.9901 132.827 32.4594 132.924 36.0579H129.769C129.582 33.9784 127.859 32.7194 125.347 32.7194C122.834 32.7194 121.111 33.9866 121.111 35.8386C121.111 37.3089 122.208 38.178 124.899 38.8441L127.2 39.4046C131.477 40.4118 133.257 42.1339 133.257 45.18C133.257 49.0791 130.152 51.5241 125.208 51.5241C120.582 51.5241 117.46 49.1359 117.257 45.3668H120.452V45.375Z" fill="white"/>
<path d="M139.998 32.3863V35.9848H142.892V38.4542H139.998V46.8289C139.998 48.1286 140.575 48.7378 141.851 48.7378C142.193 48.7378 142.534 48.7054 142.876 48.6647V51.1179C142.307 51.2235 141.721 51.2722 141.144 51.2641C138.063 51.2641 136.867 50.1106 136.867 47.162V38.4542H134.656V35.9848H136.867V32.3863H140.006H139.998Z" fill="white"/>
<path d="M144.567 43.5798C144.567 38.7954 147.388 35.798 151.779 35.798C156.169 35.798 158.99 38.8035 158.99 43.5798C158.99 48.3561 156.201 51.3616 151.779 51.3616C147.356 51.3616 144.567 48.3723 144.567 43.5798ZM155.811 43.5798C155.811 40.2981 154.307 38.3648 151.779 38.3648C149.25 38.3648 147.746 40.3144 147.746 43.5798C147.746 46.8452 149.25 48.7947 151.779 48.7947C154.307 48.7947 155.811 46.8777 155.811 43.5798Z" fill="white"/>
<path d="M161.568 35.9848H164.543V38.5679H164.616C165.031 36.9027 166.56 35.7573 168.275 35.8223C168.633 35.8223 168.991 35.8629 169.348 35.9361V38.8522C168.893 38.7141 168.421 38.6491 167.942 38.6654C166.21 38.5923 164.738 39.9407 164.673 41.679C164.673 41.8415 164.673 42.0039 164.69 42.1583V51.1666H161.568V35.9767V35.9848Z" fill="white"/>
<path d="M183.731 46.7152C183.308 49.4771 180.625 51.3697 177.186 51.3697C172.763 51.3697 170.015 48.4048 170.015 43.661C170.015 38.9172 172.779 35.8061 177.056 35.8061C181.333 35.8061 183.91 38.6897 183.91 43.3036V44.3758H173.17V44.5627C172.974 46.7396 174.584 48.6566 176.763 48.8516C176.926 48.8678 177.097 48.8678 177.259 48.8678C178.771 49.0059 180.202 48.1368 180.772 46.7315H183.739L183.731 46.7152ZM173.178 42.1826H180.78C180.894 40.1681 179.349 38.4461 177.332 38.3323C177.235 38.3323 177.145 38.3323 177.048 38.3323C174.918 38.3161 173.186 40.03 173.178 42.1583C173.178 42.1664 173.178 42.1826 173.178 42.1907V42.1826Z" fill="white"/>
<path d="M59.5065 19.6658C59.5065 16.4166 61.2383 14.4102 64.0189 14.4102C66.1003 14.3046 67.9134 15.8155 68.1898 17.8788H66.6369C66.3686 16.6603 65.2629 15.8074 64.0189 15.8561C62.2221 15.8561 61.092 17.3183 61.092 19.6577C61.092 21.9971 62.214 23.4511 64.027 23.4511C65.2303 23.5405 66.3198 22.7688 66.6369 21.6072H68.1898C67.8727 23.6217 66.0678 25.0595 64.027 24.9051C61.2383 24.9051 59.5065 22.8988 59.5065 19.6577V19.6658Z" fill="white"/>
<path d="M69.8891 20.8842C69.7021 18.9185 71.1412 17.1639 73.1169 16.9771C75.0844 16.7903 76.8406 18.228 77.0276 20.2019C77.052 20.4293 77.052 20.6568 77.0276 20.8842C77.2227 22.85 75.7755 24.6046 73.8079 24.7914C71.8404 24.9863 70.0842 23.5404 69.8972 21.5747C69.8728 21.3472 69.8728 21.1117 69.8972 20.8842H69.8891ZM75.4909 20.8842C75.4909 19.2434 74.7511 18.2849 73.4583 18.2849C72.1656 18.2849 71.4339 19.2434 71.4339 20.8842C71.4339 22.5251 72.1656 23.4836 73.4583 23.4836C74.7511 23.4836 75.4909 22.5251 75.4909 20.8842Z" fill="white"/>
<path d="M79.0277 17.1071H80.4667V18.3093H80.5806C80.9708 17.4239 81.8733 16.8877 82.8408 16.9609C84.1986 16.8553 85.3775 17.8706 85.4751 19.2272C85.4913 19.4059 85.4751 19.5927 85.4588 19.7714V24.6614H83.9628V20.1451C83.9628 18.9347 83.4343 18.3255 82.3286 18.3255C81.3692 18.2849 80.5562 19.0241 80.5155 19.9745C80.5155 20.0638 80.5155 20.1532 80.5155 20.2425V24.6614H79.0195V17.1071H79.0277Z" fill="white"/>
<path d="M90.5241 16.9609C92.2233 16.9609 93.3372 17.7488 93.4835 19.081H92.0526C91.9144 18.5286 91.3696 18.1712 90.5241 18.1712C89.6785 18.1712 89.0606 18.5692 89.0606 19.1541C89.0606 19.609 89.4427 19.8933 90.2639 20.0801L91.5241 20.3725C92.9632 20.7056 93.638 21.3229 93.638 22.4358C93.638 23.8573 92.3127 24.8077 90.5078 24.8077C88.7028 24.8077 87.5321 23.9954 87.402 22.6551H88.898C89.1663 23.3131 89.8411 23.703 90.5403 23.5974C91.4672 23.5974 92.1339 23.1831 92.1339 22.5739C92.1339 22.1271 91.7761 21.8347 91.02 21.6478L89.7029 21.3392C88.2638 20.998 87.5971 20.3563 87.5971 19.2272C87.5971 17.8869 88.8248 16.9446 90.5322 16.9446L90.5241 16.9609Z" fill="white"/>
<path d="M95.5161 15.848L97.256 13.4598H99.0041L97.0528 15.848H95.508H95.5161ZM95.6706 17.1071H97.1585V24.6614H95.6706V17.1071Z" fill="white"/>
<path d="M99.4838 25.4249H101.012C101.142 25.9692 101.768 26.3266 102.777 26.3266C104.021 26.3266 104.76 25.7336 104.76 24.7345V23.2805H104.647C104.167 24.109 103.264 24.5964 102.313 24.5477C100.386 24.5477 99.1911 23.053 99.1911 20.7948C99.1911 18.5367 100.394 16.977 102.329 16.977C103.305 16.9446 104.224 17.4563 104.704 18.3092H104.825V17.0989H106.256V24.7182C106.256 26.4484 104.899 27.545 102.76 27.545C100.874 27.545 99.6464 26.7003 99.4919 25.4168L99.4838 25.4249ZM104.785 20.7948C104.785 19.2921 104.004 18.3255 102.736 18.3255C101.468 18.3255 100.728 19.2921 100.728 20.7948C100.728 22.2976 101.451 23.2642 102.736 23.2642C104.012 23.2642 104.785 22.3057 104.785 20.7948Z" fill="white"/>
<path d="M115.005 24.6695H113.566V23.4673H113.444C113.053 24.3609 112.135 24.9051 111.159 24.8158C109.809 24.9132 108.63 23.8897 108.533 22.5413C108.517 22.3707 108.533 22.192 108.549 22.0215V17.1152H110.045V21.6315C110.045 22.85 110.541 23.4349 111.631 23.4349C112.574 23.5242 113.411 22.8338 113.501 21.8915C113.509 21.7696 113.509 21.6559 113.501 21.5341V17.1152H114.997V24.6695H115.005Z" fill="white"/>
<path d="M123.777 22.6226C123.363 24.0441 121.981 24.9701 120.501 24.8077C118.606 24.8564 117.029 23.3618 116.972 21.4691C116.972 21.2823 116.972 21.0955 117.005 20.9086C116.753 18.9997 118.086 17.2452 119.997 16.9934C120.159 16.969 120.322 16.9609 120.493 16.9609C122.598 16.9609 123.867 18.3986 123.867 20.7706V21.2904H118.525V21.3717C118.436 22.4683 119.249 23.4349 120.346 23.5324C120.411 23.5324 120.476 23.5324 120.533 23.5324C121.265 23.6217 121.972 23.2562 122.33 22.6145H123.769L123.777 22.6226ZM118.525 20.1938H122.346C122.42 19.1866 121.663 18.3174 120.663 18.2443C120.607 18.2443 120.55 18.2443 120.485 18.2443C119.419 18.2281 118.541 19.0891 118.525 20.1532C118.525 20.1695 118.525 20.1857 118.525 20.2019V20.1938Z" fill="white"/>
<path d="M125.94 14.1584H127.436V24.6615H125.94V14.1584Z" fill="white"/>
<path d="M129.509 20.8842C129.322 18.9185 130.761 17.1639 132.737 16.9771C134.713 16.7903 136.461 18.228 136.648 20.2019C136.672 20.4293 136.672 20.6568 136.648 20.8842C136.843 22.85 135.396 24.6046 133.428 24.7914C131.461 24.9863 129.704 23.5404 129.517 21.5747C129.493 21.3472 129.493 21.1117 129.517 20.8842H129.509ZM135.103 20.8842C135.103 19.2434 134.363 18.2849 133.07 18.2849C131.778 18.2849 131.046 19.2434 131.046 20.8842C131.046 22.5251 131.778 23.4836 133.07 23.4836C134.363 23.4836 135.103 22.5251 135.103 20.8842Z" fill="white"/>
<path d="M149.144 22.6226C148.73 24.0441 147.348 24.9701 145.868 24.8077C143.973 24.8564 142.396 23.3618 142.339 21.4691C142.339 21.2823 142.339 21.0955 142.372 20.9086C142.12 18.9997 143.453 17.2452 145.364 16.9934C145.526 16.969 145.689 16.9609 145.86 16.9609C147.965 16.9609 149.234 18.3986 149.234 20.7706V21.2904H143.892V21.3717C143.803 22.4683 144.616 23.4349 145.713 23.5324C145.778 23.5324 145.843 23.5324 145.9 23.5324C146.632 23.6217 147.339 23.2562 147.697 22.6145H149.136L149.144 22.6226ZM143.892 20.1938H147.713C147.787 19.1866 147.03 18.3174 146.03 18.2443C145.973 18.2443 145.917 18.2443 145.852 18.2443C144.786 18.2281 143.908 19.0891 143.892 20.1532C143.892 20.1695 143.892 20.1857 143.892 20.2019V20.1938Z" fill="white"/>
<path d="M151.242 17.1071H152.681V18.3093H152.795C153.185 17.4239 154.088 16.8877 155.055 16.9609C156.413 16.8553 157.592 17.8706 157.689 19.2272C157.706 19.4059 157.689 19.5927 157.673 19.7714V24.6614H156.177V20.1451C156.177 18.9347 155.649 18.3255 154.543 18.3255C153.584 18.2849 152.77 19.0241 152.73 19.9745C152.73 20.0638 152.73 20.1532 152.73 20.2425V24.6614H151.234V17.1071H151.242Z" fill="white"/>
<path d="M170.47 22.6226C170.056 24.0441 168.673 24.9701 167.194 24.8077C165.299 24.8564 163.722 23.3618 163.665 21.4691C163.665 21.2823 163.665 21.0955 163.698 20.9086C163.446 18.9997 164.779 17.2452 166.69 16.9934C166.852 16.969 167.015 16.9609 167.186 16.9609C169.291 16.9609 170.56 18.3986 170.56 20.7706V21.2904H165.218V21.3717C165.129 22.4683 165.942 23.4349 167.039 23.5324C167.104 23.5324 167.169 23.5324 167.226 23.5324C167.958 23.6217 168.665 23.2562 169.023 22.6145H170.462L170.47 22.6226ZM165.218 20.1938H169.039C169.113 19.1866 168.356 18.3174 167.356 18.2443C167.299 18.2443 167.243 18.2443 167.177 18.2443C166.112 18.2281 165.234 19.0891 165.218 20.1532C165.218 20.1695 165.218 20.1857 165.218 20.2019V20.1938Z" fill="white"/>
<path d="M172.633 14.1584H174.129V24.6615H172.633V14.1584Z" fill="white"/>
</svg>
