<svg width="201" height="60" viewBox="0 0 201 60" fill="none" xmlns="http://www.w3.org/2000/svg">
<mask id="mask0_36_706" style="mask-type:luminance" maskUnits="userSpaceOnUse" x="0" y="0" width="201" height="60">
<path d="M201 0.143921H0V59.6447H201V0.143921Z" fill="white"/>
</mask>
<g mask="url(#mask0_36_706)">
<path d="M193.553 59.6443H7.44746C3.34973 59.6443 0 56.2976 0 52.2037V7.57603C0 3.48205 3.34973 0.135376 7.44746 0.135376H193.561C197.658 0.135376 201.008 3.48205 201.008 7.57603V52.2037C201.008 56.2976 197.658 59.6443 193.561 59.6443" fill="#000100"/>
<path d="M193.553 1.338C197 1.338 199.805 4.14042 199.805 7.58457V52.2122C199.805 55.6564 197 58.4588 193.553 58.4588H7.44746C4.00016 58.4588 1.19517 55.6564 1.19517 52.2122V7.58457C1.19517 4.14042 4.00016 1.338 7.44746 1.338H193.561H193.553ZM193.553 0.143921H7.44746C3.34973 0.143921 0 3.49058 0 7.58457V52.2122C0 56.3062 3.34973 59.6529 7.44746 59.6529H193.561C197.658 59.6529 201.008 56.3062 201.008 52.2122V7.58457C201.008 3.49058 197.658 0.143921 193.561 0.143921" fill="#959494"/>
<path d="M101.443 32.4977C97.9389 32.4977 95.0851 35.1621 95.0851 38.8255C95.0851 42.489 97.9389 45.1533 101.443 45.1533C104.947 45.1533 107.801 42.4646 107.801 38.8255C107.801 35.1864 104.947 32.4977 101.443 32.4977ZM101.443 42.6596C99.5243 42.6596 97.8657 41.0756 97.8657 38.8255C97.8657 36.5755 99.5243 34.9915 101.443 34.9915C103.362 34.9915 105.02 36.5511 105.02 38.8255C105.02 41.1 103.37 42.6596 101.443 42.6596ZM87.5808 32.4977C84.0766 32.4977 81.2228 35.1621 81.2228 38.8255C81.2228 42.489 84.0766 45.1533 87.5808 45.1533C91.085 45.1533 93.9387 42.4646 93.9387 38.8255C93.9387 35.1864 91.085 32.4977 87.5808 32.4977ZM87.5808 42.6596C85.662 42.6596 84.0034 41.0756 84.0034 38.8255C84.0034 36.5755 85.662 34.9915 87.5808 34.9915C89.4995 34.9915 91.1581 36.5511 91.1581 38.8255C91.1581 41.1 89.4995 42.6596 87.5808 42.6596ZM71.0842 34.4472V37.1278H77.5153C77.3202 38.6387 76.8161 39.7434 76.0518 40.507C75.1168 41.4411 73.6534 42.4727 71.0842 42.4727C67.1247 42.4727 64.0351 39.2885 64.0351 35.3326C64.0351 31.3768 67.1328 28.1925 71.0842 28.1925C73.2225 28.1925 74.7754 29.0292 75.9299 30.1096L77.8243 28.2169C76.2145 26.6817 74.0843 25.512 71.0842 25.512C65.6612 25.512 61.1082 29.9227 61.1082 35.3408C61.1082 40.7588 65.6693 45.1696 71.0842 45.1696C74.0111 45.1696 76.2145 44.2111 77.9462 42.4159C79.7187 40.6451 80.2715 38.1513 80.2715 36.1368C80.2715 35.5114 80.2227 34.9427 80.1252 34.4635H71.0842V34.4472ZM138.542 36.5267C138.014 35.1133 136.404 32.4977 133.119 32.4977C129.835 32.4977 127.143 35.0646 127.143 38.8255C127.143 42.3753 129.826 45.1533 133.428 45.1533C136.331 45.1533 138.006 43.3825 138.705 42.3509L136.542 40.9131C135.818 41.9691 134.843 42.6596 133.42 42.6596C131.997 42.6596 130.997 42.0097 130.347 40.7425L138.81 37.2415L138.526 36.5267H138.542ZM129.908 38.6387C129.835 36.1937 131.802 34.9509 133.217 34.9509C134.322 34.9509 135.257 35.5032 135.566 36.2912L129.908 38.6387ZM123.021 44.7715H125.802V26.178H123.021V44.7715ZM118.468 33.9193H118.371C117.745 33.1801 116.549 32.5058 115.037 32.5058C111.866 32.5058 108.972 35.2839 108.972 38.858C108.972 42.4321 111.874 45.1614 115.037 45.1614C116.549 45.1614 117.745 44.4872 118.371 43.7237H118.468V44.6335C118.468 47.0541 117.175 48.3457 115.086 48.3457C113.387 48.3457 112.33 47.1272 111.899 46.0956L109.476 47.1028C110.175 48.7843 112.021 50.8394 115.086 50.8394C118.346 50.8394 121.111 48.9224 121.111 44.2517V32.8876H118.468V33.9193ZM115.281 42.6596C113.362 42.6596 111.752 41.0512 111.752 38.8499C111.752 36.6486 113.362 34.9915 115.281 34.9915C117.2 34.9915 118.663 36.6242 118.663 38.8499C118.663 41.0756 117.175 42.6596 115.281 42.6596ZM151.575 26.178H144.916V44.7715H147.697V37.7289H151.575C154.657 37.7289 157.681 35.5032 157.681 31.9535C157.681 28.4037 154.657 26.178 151.575 26.178ZM151.648 35.1377H147.697V28.7612H151.648C153.722 28.7612 154.901 30.4832 154.901 31.9454C154.901 33.4075 153.722 35.1296 151.648 35.1296M168.82 32.4652C166.812 32.4652 164.722 33.3506 163.86 35.3083L166.324 36.3399C166.852 35.3083 167.836 34.9752 168.86 34.9752C170.3 34.9752 171.755 35.8363 171.779 37.3634V37.5583C171.275 37.274 170.202 36.8435 168.885 36.8435C166.226 36.8435 163.519 38.3057 163.519 41.0269C163.519 43.5125 165.698 45.1208 168.137 45.1208C170.007 45.1208 171.031 44.2842 171.682 43.3013H171.779V44.739H174.462V37.6071C174.462 34.3091 171.999 32.4652 168.812 32.4652M168.486 42.6596C167.576 42.6596 166.308 42.2047 166.308 41.0837C166.308 39.6459 167.885 39.1017 169.251 39.1017C170.47 39.1017 171.048 39.3616 171.787 39.7272C171.568 41.4492 170.088 42.6677 168.486 42.6677M184.243 32.8714L181.056 40.9375H180.959L177.649 32.8714H174.657L179.617 44.138L176.788 50.4089H179.682L187.325 32.8714H184.235H184.243ZM159.218 44.7715H161.998V26.178H159.218V44.7715Z" fill="white"/>
<path d="M30.8468 29.0374L14.9925 45.8439C14.9925 45.8439 14.9925 45.8439 14.9925 45.852C15.4803 47.6797 17.1471 49.0199 19.1309 49.0199C19.9195 49.0199 20.6675 48.8088 21.3017 48.427L21.3505 48.3945L39.1967 38.1108L30.8468 29.0293V29.0374Z" fill="#DC2A27"/>
<path d="M46.88 26.1781H46.8637L39.1642 21.7104L30.4891 29.4273L39.1967 38.127L46.8556 33.7081C48.1971 32.9851 49.1077 31.5636 49.1077 29.939C49.1077 28.3144 48.2052 26.9092 46.88 26.1862" fill="#F3AC00"/>
<path d="M14.9925 13.9448C14.8949 14.2941 14.8461 14.6678 14.8461 15.0495V44.7553C14.8461 45.1371 14.8949 45.5026 14.9925 45.8519L31.3915 29.476L14.9925 13.9529V13.9448Z" fill="#4569B2"/>
<path d="M30.9606 29.8984L39.1642 21.7023L21.3423 11.378C20.6919 10.9881 19.9358 10.7688 19.1309 10.7688C17.1471 10.7688 15.4803 12.1172 14.9925 13.9449L30.9606 29.8984Z" fill="#359A3C"/>
</g>
<path d="M62.2139 10.4194H65.1815C66.1409 10.4194 66.9783 10.6144 67.6856 11.0043C68.4011 11.3942 68.9458 11.9384 69.328 12.6451C69.7101 13.3518 69.9052 14.156 69.9052 15.0577C69.9052 15.9593 69.7101 16.7716 69.328 17.4702C68.9458 18.1769 68.393 18.7211 67.6856 19.111C66.9702 19.5009 66.1409 19.6959 65.1815 19.6959H62.2139V10.4276V10.4194ZM65.1408 18.3393C66.1978 18.3393 67.0108 18.0469 67.5962 17.4621C68.1816 16.8772 68.4743 16.073 68.4743 15.0495C68.4743 14.026 68.1816 13.2219 67.5962 12.637C67.0108 12.0521 66.1978 11.7597 65.1408 11.7597H63.6367V18.3312H65.1408V18.3393Z" fill="white"/>
<path d="M71.759 10.4194H73.1819V19.6877H71.759V10.4194Z" fill="white"/>
<path d="M76.1656 19.2167C75.5559 18.7699 75.125 18.1363 74.881 17.3241L76.2307 16.7798C76.3689 17.2997 76.6128 17.7221 76.9706 18.047C77.3283 18.3719 77.7511 18.5425 78.2552 18.5425C78.7186 18.5425 79.117 18.4206 79.4422 18.177C79.7674 17.9333 79.93 17.6002 79.93 17.1778C79.93 16.7879 79.7837 16.4711 79.4991 16.2112C79.2146 15.9594 78.7186 15.7076 78.0194 15.4639L77.434 15.2608C76.7998 15.0334 76.2795 14.7247 75.8567 14.3185C75.442 13.9205 75.2307 13.3844 75.2307 12.7183C75.2307 12.2634 75.3526 11.841 75.5965 11.4511C75.8404 11.0612 76.19 10.7526 76.6291 10.5332C77.0681 10.3139 77.5803 10.2002 78.1413 10.2002C78.9462 10.2002 79.5886 10.3951 80.0682 10.7851C80.5479 11.175 80.8813 11.6217 81.052 12.1091L79.7674 12.6533C79.678 12.3447 79.4991 12.0766 79.2227 11.8492C78.9463 11.6217 78.5885 11.5161 78.1495 11.5161C77.7104 11.5161 77.369 11.6298 77.0763 11.8492C76.7836 12.0766 76.6372 12.3609 76.6372 12.7021C76.6372 13.0189 76.7673 13.2869 77.0356 13.4981C77.2958 13.7093 77.7104 13.9124 78.2633 14.0992L78.8568 14.3023C79.6536 14.5785 80.2634 14.9359 80.6943 15.3745C81.1252 15.8132 81.3447 16.398 81.3447 17.1372C81.3447 17.7383 81.1902 18.2501 80.8813 18.6562C80.5723 19.0624 80.1821 19.371 79.7024 19.566C79.2227 19.7609 78.7349 19.8665 78.2308 19.8665C77.4584 19.8665 76.7673 19.6391 76.1575 19.1923L76.1656 19.2167Z" fill="white"/>
<path d="M83.2067 10.4194H86.3938C86.9467 10.4194 87.4507 10.5413 87.9142 10.785C88.3776 11.0287 88.7435 11.3617 89.0118 11.7922C89.2801 12.2227 89.4183 12.7101 89.4183 13.2544C89.4183 13.7986 89.2801 14.286 89.0118 14.7165C88.7435 15.147 88.3695 15.4882 87.9142 15.7237C87.4507 15.9674 86.9467 16.0893 86.3938 16.0893H84.6295V19.6877H83.2067V10.4194ZM86.4344 14.7409C86.906 14.7409 87.2881 14.5946 87.5808 14.2941C87.8735 13.9935 88.0117 13.6524 88.0117 13.2544C88.0117 12.8563 87.8654 12.507 87.5808 12.2146C87.2881 11.9141 86.906 11.7678 86.4344 11.7678H84.6376V14.7409H86.4344Z" fill="white"/>
<path d="M92.9875 19.241C92.2558 18.8105 91.6785 18.2256 91.2557 17.4864C90.833 16.7472 90.6297 15.935 90.6297 15.0495C90.6297 14.1641 90.8411 13.3437 91.2557 12.6127C91.6704 11.8735 92.2477 11.2886 92.9875 10.8581C93.7193 10.4276 94.5404 10.2083 95.4348 10.2083C96.3291 10.2083 97.1503 10.4276 97.8739 10.8581C98.6056 11.2886 99.1748 11.8735 99.5975 12.6127C100.012 13.3518 100.224 14.1641 100.224 15.0495C100.224 15.935 100.012 16.7554 99.5975 17.4864C99.1748 18.2256 98.6056 18.8105 97.8739 19.241C97.1422 19.6715 96.3291 19.8908 95.4348 19.8908C94.5404 19.8908 93.7193 19.6715 92.9875 19.241ZM97.1422 18.0957C97.6544 17.7951 98.0609 17.3808 98.3617 16.8528C98.6625 16.3249 98.8089 15.7238 98.8089 15.0495C98.8089 14.3753 98.6625 13.7742 98.3617 13.2462C98.0609 12.7183 97.6544 12.304 97.1422 12.0034C96.6299 11.7029 96.0608 11.5567 95.4348 11.5567C94.8087 11.5567 94.2477 11.7029 93.7274 12.0034C93.2152 12.304 92.8086 12.7183 92.5078 13.2462C92.207 13.7742 92.0607 14.3753 92.0607 15.0495C92.0607 15.7238 92.207 16.3249 92.5078 16.8528C92.8086 17.3808 93.2152 17.7951 93.7274 18.0957C94.2396 18.3962 94.8087 18.5424 95.4348 18.5424C96.0608 18.5424 96.6218 18.3962 97.1422 18.0957Z" fill="white"/>
<path d="M102.069 10.4194H103.752L107.947 17.2265H108.029L107.947 15.4394V10.4194H109.362V19.6877H107.882L103.476 12.5314H103.394L103.476 14.3185V19.6877H102.061V10.4194H102.069Z" fill="white"/>
<path d="M111.704 10.4194H113.127V19.6877H111.704V10.4194Z" fill="white"/>
<path d="M115.46 10.4195H118.932C119.428 10.4195 119.883 10.5251 120.306 10.7444C120.728 10.9637 121.062 11.2562 121.306 11.6298C121.55 12.0035 121.672 12.4178 121.672 12.8808C121.672 13.3438 121.558 13.7337 121.33 14.0748C121.102 14.416 120.794 14.6759 120.42 14.8546V14.9196C120.899 15.0821 121.289 15.3583 121.574 15.7319C121.859 16.1137 122.005 16.5605 122.005 17.0803C122.005 17.6002 121.875 18.0389 121.607 18.4288C121.346 18.8187 120.989 19.1273 120.541 19.3467C120.094 19.566 119.615 19.6797 119.086 19.6797H115.46V10.4114V10.4195ZM118.867 14.3104C119.298 14.3104 119.647 14.1804 119.899 13.9124C120.159 13.6524 120.289 13.3438 120.289 13.0026C120.289 12.6614 120.159 12.3609 119.907 12.101C119.655 11.8491 119.322 11.7192 118.915 11.7192H116.883V14.3104H118.867ZM119.086 18.3638C119.533 18.3638 119.899 18.2257 120.167 17.9576C120.436 17.6896 120.574 17.3565 120.574 16.9829C120.574 16.6092 120.436 16.2762 120.151 16C119.867 15.7238 119.501 15.5857 119.029 15.5857H116.883V18.3719H119.086V18.3638Z" fill="white"/>
<path d="M123.883 10.4194H125.306V18.3393H129.298V19.6877H123.883V10.4194Z" fill="white"/>
<path d="M130.802 10.4194H136.42V11.7678H132.225V14.3834H136.006V15.7319H132.225V18.3475H136.42V19.6959H130.802V10.4276V10.4194Z" fill="white"/>
<path d="M141.225 10.4194H146.843V11.7678H142.648V14.3834H146.429V15.7319H142.648V18.3475H146.843V19.6959H141.225V10.4276V10.4194Z" fill="white"/>
<path d="M148.843 10.4194H150.526L154.722 17.2265H154.803L154.722 15.4394V10.4194H156.136V19.6877H154.657L150.25 12.5314H150.169L150.25 14.3185V19.6877H148.835V10.4194H148.843Z" fill="white"/>
</svg>
