<svg width="32" height="32" viewBox="0 0 32 32" fill="none" xmlns="http://www.w3.org/2000/svg">
<g clip-path="url(#clip0_32_155)">
<path d="M27.4772 14.3576H26.2845V11.9723C26.2845 9.34471 24.1474 7.2015 21.5138 7.2015V1.7224C21.5138 1.06248 20.981 0.529709 20.3211 0.529709C19.6612 0.529709 19.1284 1.06248 19.1284 1.7224V7.20756H7.68586V1.7224C7.68586 1.06248 7.15308 0.529709 6.49317 0.529709C5.83326 0.529709 5.30048 1.06248 5.30048 1.7224V7.20756C2.67293 7.20756 0.529724 9.34471 0.529724 11.9783V21.5138C0.529724 24.1413 2.66688 26.2845 5.30048 26.2845H12.6746L17.0942 30.7041C17.4332 31.0432 17.9478 31.1461 18.3958 30.9645C18.8439 30.7828 19.1345 30.3469 19.1345 29.8626V26.2845H21.5198C24.1474 26.2845 26.2906 24.1474 26.2906 21.5138H27.4833C29.457 21.5138 31.0614 19.9094 31.0614 17.9357C31.0614 15.962 29.457 14.3576 27.4833 14.3576H27.4772ZM21.5138 23.8992H17.9357C17.2758 23.8992 16.743 24.4319 16.743 25.0918V26.9808L14.0065 24.2442C13.7825 24.0202 13.4798 23.8931 13.165 23.8931H5.30048C3.98671 23.8931 2.9151 22.8215 2.9151 21.5077V11.9723C2.9151 10.6585 3.98671 9.58688 5.30048 9.58688H21.5138C22.8276 9.58688 23.8992 10.6585 23.8992 11.9723V19.1284H20.3211C19.6612 19.1284 19.1284 19.6612 19.1284 20.3211C19.1284 20.981 19.6612 21.5138 20.3211 21.5138H23.8992C23.8992 22.8275 22.8276 23.8992 21.5138 23.8992ZM27.4772 19.1284H26.2845V16.743H27.4772C28.1371 16.743 28.6699 17.2758 28.6699 17.9357C28.6699 18.5956 28.1371 19.1284 27.4772 19.1284Z" fill="#3D7EDB"/>
<path d="M8.87854 11.9783C8.21863 11.9783 7.68585 12.5111 7.68585 13.171V15.5564C7.68585 16.2163 8.21863 16.7491 8.87854 16.7491C9.53846 16.7491 10.0712 16.2163 10.0712 15.5564V13.171C10.0712 12.5111 9.53846 11.9783 8.87854 11.9783Z" fill="#3D7EDB"/>
<path d="M19.1284 13.1649C19.1284 12.505 18.5956 11.9722 17.9357 11.9722C17.2758 11.9722 16.743 12.505 16.743 13.1649V15.5503C16.743 16.2102 17.2758 16.743 17.9357 16.743C18.5956 16.743 19.1284 16.2102 19.1284 15.5503V13.1649Z" fill="#3D7EDB"/>
<path d="M15.5503 21.5138H11.2579C10.598 21.5138 10.0652 20.981 10.0652 20.3211C10.0652 19.6612 10.598 19.1284 11.2579 19.1284H15.5503C16.2103 19.1284 16.743 19.6612 16.743 20.3211C16.743 20.981 16.2103 21.5138 15.5503 21.5138Z" fill="#3FCFD5"/>
</g>
<defs>
<clipPath id="clip0_32_155">
<rect width="30.5195" height="30.5195" fill="white" transform="translate(0.529724 0.529709)"/>
</clipPath>
</defs>
</svg>
