<svg width="24" height="32" viewBox="0 0 24 32" fill="none" xmlns="http://www.w3.org/2000/svg">
<g clip-path="url(#clip0_32_145)">
<path d="M22.8444 12.0028L18.2639 9.24769C17.9126 9.03473 17.4718 9.03473 17.1204 9.24769L12.5399 12.0028C12.1886 12.2158 11.965 12.6084 11.965 13.0343V18.538C11.965 18.9639 12.1822 19.3565 12.5399 19.5695L17.1204 22.3246C17.4718 22.5376 17.9126 22.5376 18.2639 22.3246L22.8444 19.5695C23.1958 19.3565 23.4194 18.9639 23.4194 18.538V13.0343C23.4194 12.6084 23.2022 12.2158 22.8444 12.0028ZM21.1323 17.8525L17.7017 19.9155L14.2712 17.8525V13.7198L17.7017 11.6568L21.1323 13.7198V17.8525Z" fill="#3FCFD5"/>
<path d="M17.6953 16.9807C18.3269 16.9807 18.8389 16.4474 18.8389 15.7895C18.8389 15.1316 18.3269 14.5983 17.6953 14.5983C17.0638 14.5983 16.5518 15.1316 16.5518 15.7895C16.5518 16.4474 17.0638 16.9807 17.6953 16.9807Z" fill="#3FCFD5"/>
<path d="M16.5518 5.3013C16.5518 5.96013 17.0629 6.49253 17.6954 6.49253C18.3278 6.49253 18.8389 5.96013 18.8389 5.3013C18.8389 2.6726 16.7882 0.529709 14.2584 0.529709H5.11021C2.5804 0.529709 0.529724 2.66594 0.529724 5.3013V26.2843C0.529724 28.913 2.5804 31.0559 5.11021 31.0559H14.2648C16.7882 31.0559 18.8453 28.9197 18.8453 26.2843C18.8453 25.6255 18.3342 25.0931 17.7017 25.0931C17.0693 25.0931 16.5582 25.6255 16.5582 26.2843C16.5582 27.602 15.5297 28.6668 14.2712 28.6668H5.11021C3.8453 28.6668 2.82316 27.5953 2.82316 26.2843V5.3013C2.82316 3.98362 3.85169 2.91883 5.11021 2.91883H14.2648C15.5297 2.91883 16.5518 3.99027 16.5518 5.3013Z" fill="#3D7EDB"/>
<path d="M8.5408 26.2843C7.90835 26.2843 7.39728 25.7519 7.39728 25.093C7.39728 24.4342 7.90835 23.9018 8.5408 23.9018H10.8278C11.4603 23.9018 11.9714 24.4342 11.9714 25.093C11.9714 25.7519 11.4603 26.2843 10.8278 26.2843H8.5408Z" fill="#3D7EDB"/>
</g>
<defs>
<clipPath id="clip0_32_145">
<rect width="22.8896" height="30.5195" fill="white" transform="translate(0.529724 0.529709)"/>
</clipPath>
</defs>
</svg>
