<svg width="32" height="32" viewBox="0 0 32 32" fill="none" xmlns="http://www.w3.org/2000/svg">
<g clip-path="url(#clip0_32_130)">
<path d="M17.9362 22.9408C15.9623 22.9408 14.3605 21.3391 14.3605 19.3652H4.1054C2.13147 19.3652 0.529724 17.7634 0.529724 15.7895C0.529724 13.8155 2.13147 12.2138 4.1054 12.2138H14.3605C14.3605 10.2399 15.9623 8.63812 17.9362 8.63812C18.7271 8.63812 19.4715 8.88403 20.0896 9.35592L24.855 12.9316C25.7655 13.6162 26.2839 14.653 26.2839 15.7961C26.2839 16.9393 25.7655 17.9761 24.855 18.6607L20.0896 22.2363C19.4715 22.7082 18.7271 22.9541 17.9362 22.9541V22.9408ZM4.1054 14.5998C3.44742 14.5998 2.91572 15.1315 2.91572 15.7895C2.91572 16.4475 3.44742 16.9792 4.1054 16.9792H15.5502C16.2082 16.9792 16.7399 17.5109 16.7399 18.1688V19.3585C16.7399 20.0165 17.2716 20.5482 17.9296 20.5482C18.1954 20.5482 18.4347 20.4684 18.6341 20.3156L23.4127 16.7332C23.7184 16.5073 23.8913 16.1617 23.8913 15.7762C23.8913 15.3907 23.7184 15.0517 23.4127 14.8191C23.4127 14.8191 18.6407 11.2368 18.6341 11.2368C18.4347 11.0839 18.1888 11.0042 17.9296 11.0042C17.2716 11.0042 16.7399 11.5359 16.7399 12.1939V13.3835C16.7399 14.0415 16.2082 14.5732 15.5502 14.5732H4.1054V14.5998Z" fill="#3D7EDB"/>
<path d="M25.0876 31.0492H15.5502C12.2603 31.0492 9.58856 28.3774 9.58856 25.0875V22.9408C9.58856 22.2828 10.1203 21.7511 10.7782 21.7511C11.4362 21.7511 11.9679 22.2828 11.9679 22.9408V25.0875C11.9679 27.0615 13.5697 28.6632 15.5436 28.6632H25.0809C27.0549 28.6632 28.6566 27.0615 28.6566 25.0875V6.49137C28.6566 4.51744 27.0549 2.91569 25.0809 2.91569H15.5436C13.5697 2.91569 11.9679 4.51744 11.9679 6.49137V8.6381C11.9679 9.29608 11.4362 9.82778 10.7782 9.82778C10.1203 9.82778 9.58856 9.29608 9.58856 8.6381V6.49137C9.58856 3.20148 12.267 0.529694 15.5502 0.529694H25.0876C28.3775 0.529694 31.0493 3.20148 31.0493 6.49137V25.0875C31.0493 28.3774 28.3775 31.0492 25.0876 31.0492Z" fill="#3FCFD5"/>
</g>
<defs>
<clipPath id="clip0_32_130">
<rect width="30.5195" height="30.5195" fill="white" transform="translate(0.529724 0.529724)"/>
</clipPath>
</defs>
</svg>
