<svg width="32" height="32" viewBox="0 0 32 32" fill="none" xmlns="http://www.w3.org/2000/svg">
<g clip-path="url(#clip0_32_118)">
<path d="M25.0882 16.7441H20.322C19.6612 16.7441 19.1271 17.2781 19.1271 17.939C19.1271 18.5998 19.6612 19.1338 20.322 19.1338H25.0882C25.749 19.1338 26.2831 18.5998 26.2831 17.939C26.2831 17.2781 25.749 16.7441 25.0882 16.7441Z" fill="#3FCFD5"/>
<path d="M25.0882 9.58813H6.49078C3.20652 9.58813 0.529724 12.2649 0.529724 15.5492V25.0882C0.529724 28.3725 3.20652 31.0493 6.49078 31.0493H25.0882C28.3724 31.0493 31.0492 28.3725 31.0492 25.0882V15.5492C31.0492 12.2649 28.3724 9.58813 25.0882 9.58813ZM28.6662 25.0882C28.6662 27.0574 27.0641 28.6662 25.0882 28.6662H6.49078C4.52156 28.6662 2.91281 27.0641 2.91281 25.0882V15.5492C2.91281 13.58 4.51489 11.9712 6.49078 11.9712H25.0882C27.0574 11.9712 28.6662 13.5733 28.6662 15.5492V25.0882Z" fill="#3D7EDB"/>
<path d="M14.5946 6.4908C14.5946 7.15166 15.1286 7.68568 15.7895 7.68568C16.4503 7.68568 16.9844 7.15166 16.9844 6.4908C16.9844 5.82994 17.5184 5.29592 18.1792 5.29592H25.3352C27.3044 5.29592 28.9132 3.69384 28.9132 1.71795C28.9132 1.0571 28.3791 0.523071 27.7183 0.523071C27.0574 0.523071 26.5234 1.0571 26.5234 1.71795C26.5234 2.37881 25.9894 2.91283 25.3285 2.91283H18.1726C16.2034 2.91283 14.5946 4.51491 14.5946 6.4908Z" fill="#3D7EDB"/>
<path d="M14.8349 17.939C14.8349 15.9698 13.2328 14.361 11.2569 14.361C9.28103 14.361 7.67896 15.9631 7.67896 17.939C7.67896 19.9149 9.28103 21.517 11.2569 21.517C13.2328 21.517 14.8349 19.9149 14.8349 17.939ZM11.2569 19.1272C10.6027 19.1272 10.062 18.5932 10.062 17.9323C10.062 17.2715 10.5961 16.7374 11.2569 16.7374C11.9178 16.7374 12.4518 17.2715 12.4518 17.9323C12.4518 18.5932 11.9178 19.1272 11.2569 19.1272Z" fill="#3D7EDB"/>
<path d="M11.2569 21.5103C9.13419 21.5103 7.1583 22.6517 6.09692 24.4874C5.76983 25.0548 5.96341 25.7891 6.53082 26.1162C7.09822 26.4433 7.8325 26.2497 8.15959 25.6823C8.80042 24.5809 9.98863 23.8933 11.2569 23.8933C12.5252 23.8933 13.7201 24.5809 14.3543 25.6823C14.6814 26.2497 15.4157 26.45 15.9831 26.1162C16.5505 25.7825 16.7507 25.0548 16.417 24.4874C15.3556 22.6517 13.373 21.5103 11.2569 21.5103Z" fill="#3D7EDB"/>
<path d="M25.0882 21.5103H20.322C19.6612 21.5103 19.1271 22.0443 19.1271 22.7051C19.1271 23.366 19.6612 23.9 20.322 23.9H25.0882C25.749 23.9 26.2831 23.366 26.2831 22.7051C26.2831 22.0443 25.749 21.5103 25.0882 21.5103Z" fill="#3D7EDB"/>
</g>
<defs>
<clipPath id="clip0_32_118">
<rect width="30.5195" height="30.5195" fill="white" transform="translate(0.529724 0.529724)"/>
</clipPath>
</defs>
</svg>
