<svg width="33" height="33" viewBox="0 0 33 33" fill="none" xmlns="http://www.w3.org/2000/svg">
<g clip-path="url(#clip0_32_138)">
<path d="M31.8903 22.8264C32.2844 23.6146 32.1945 24.5756 31.6484 25.3499L28.0187 31.5377C27.7905 31.9318 27.3757 32.1461 26.9539 32.1461C26.7396 32.1461 26.5253 32.0908 26.3317 31.9733C25.744 31.6276 25.5435 30.874 25.8892 30.2863L29.5535 24.0501C29.5535 24.0501 29.5742 24.0156 29.5881 23.9948H26.712C26.0275 23.9948 25.4744 23.4417 25.4744 22.7573C25.4744 22.0728 26.0275 21.5197 26.712 21.5197H29.6779C30.6459 21.5197 31.4963 22.0175 31.8973 22.8264H31.8903ZM24.7277 7.1945H7.94123C3.85522 7.1945 0.529724 10.52 0.529724 14.606V24.7277C0.529724 28.8137 3.85522 32.1392 7.94123 32.1392H22.0176C22.702 32.1392 23.2551 31.5861 23.2551 30.9016C23.2551 30.2172 22.702 29.6641 22.0176 29.6641H7.94123C5.21722 29.6641 3.00483 27.4517 3.00483 24.7277V14.606C3.00483 11.882 5.21722 9.66961 7.94123 9.66961H24.7346C27.4586 9.66961 29.671 11.882 29.671 14.606V18.0006C29.671 18.6851 30.2241 19.2382 30.9086 19.2382C31.593 19.2382 32.1461 18.6851 32.1461 18.0006V14.606C32.1461 10.52 28.8206 7.1945 24.7346 7.1945H24.7277ZM18.5607 22.135C19.2452 22.135 19.7983 21.5819 19.7983 20.8975V13.3685C19.7983 12.684 19.2452 12.1309 18.5607 12.1309C17.8762 12.1309 17.3231 12.684 17.3231 13.3685V16.5764H16.3345C15.9957 16.5764 15.7192 16.2999 15.7192 15.9611V13.3685C15.7192 12.684 15.1661 12.1309 14.4816 12.1309C13.7971 12.1309 13.244 12.684 13.244 13.3685V15.9611C13.244 17.6619 14.6268 19.0446 16.3276 19.0446H17.3162V20.8975C17.3162 21.5819 17.8693 22.135 18.5538 22.135H18.5607ZM11.9512 15.6569C11.9512 13.7141 10.3887 12.1378 8.45976 12.1378C7.0701 12.1378 6.06761 12.8568 5.95699 12.9398C5.6597 13.168 5.4592 13.5206 5.4592 13.9285C5.4592 14.6129 6.0123 15.166 6.69676 15.166C6.97331 15.166 7.22911 15.0761 7.43653 14.9171L7.4227 14.931C7.4227 14.931 7.879 14.6129 8.45284 14.6129C9.02668 14.6129 9.46916 15.0831 9.46916 15.6638C9.46916 15.9058 9.27557 16.0786 8.37679 16.6179C7.6232 17.0742 6.68293 17.6342 5.93625 18.6298C5.36241 19.3903 5.23796 20.2338 5.59748 20.9528C5.97773 21.7133 6.80738 22.1558 7.86518 22.1558H10.5823C11.2667 22.1558 11.8198 21.6027 11.8198 20.9182C11.8198 20.2338 11.2667 19.6807 10.5823 19.6807H8.30074C8.70174 19.3073 9.1857 19.017 9.64891 18.7335C10.6721 18.1182 11.9374 17.3577 11.9374 15.6638L11.9512 15.6569Z" fill="#3D7EDB"/>
<path d="M20.4067 27.8803C20.2269 27.8803 20.0472 27.8388 19.8813 27.7628C19.2659 27.4724 19.0032 26.7326 19.2936 26.1173L24.0502 16.051C24.3406 15.4356 25.0804 15.1729 25.6957 15.4633C26.311 15.7537 26.5737 16.4934 26.2834 17.1088L21.5267 27.1751C21.3193 27.6245 20.8699 27.8803 20.4067 27.8803ZM25.9653 5.46606C25.2809 5.46606 24.7278 4.91296 24.7278 4.2285C24.7278 3.54404 24.1747 2.99095 23.4902 2.99095C22.8058 2.99095 22.2527 3.54404 22.2527 4.2285C22.2527 4.91296 21.6996 5.46606 21.0151 5.46606C20.3307 5.46606 19.7776 4.91296 19.7776 4.2285C19.7776 2.18896 21.4368 0.522751 23.4833 0.522751C25.5298 0.522751 27.1891 2.18204 27.1891 4.2285C27.1891 4.91296 26.636 5.46606 25.9515 5.46606H25.9653ZM11.7646 5.46606C11.0801 5.46606 10.527 4.91296 10.527 4.2285C10.527 3.54404 9.97391 2.99095 9.28945 2.99095C8.60499 2.99095 8.05189 3.54404 8.05189 4.2285C8.05189 4.91296 7.4988 5.46606 6.81434 5.46606C6.12988 5.46606 5.57678 4.91296 5.57678 4.2285C5.57678 2.18896 7.23607 0.522751 9.28253 0.522751C11.329 0.522751 12.9883 2.18204 12.9883 4.2285C12.9883 4.91296 12.4352 5.46606 11.7507 5.46606H11.7646Z" fill="#3FCFD5"/>
</g>
<defs>
<clipPath id="clip0_32_138">
<rect width="31.6095" height="31.6095" fill="white" transform="translate(0.529724 0.529709)"/>
</clipPath>
</defs>
</svg>
